<svg xmlns="http://www.w3.org/2000/svg" viewBox="0 0 100 26.1" role="img" aria-labelledby="do2gnytnnu4whpot1gsehtojtlrl348"><title id="do2gnytnnu4whpot1gsehtojtlrl348">Goldbelly</title><path class="foreground" d="M8.03 26.07c-4.34 0-5.35-2.68-5.59-3.83a4.63 4.63 0 0 1 .12-2.38 6.7 6.7 0 0 1-2.4-4.01 6.7 6.7 0 0 1 5.41-8.06 6.85 6.85 0 0 1 2.35-.05c.24-.13.5-.23.79-.28 1.57-.27 3.16-.54 4.74-.78a2.52 2.52 0 0 1 2.2.76 9.88 9.88 0 0 1 5.03-2.05c.44-.05.89-.08 1.33-.08a9.4 9.4 0 0 1 3.64.69l-.21-2.27a2.5 2.5 0 0 1 2.25-2.7c1.68-.16 3.39-.3 5.07-.41a2.5 2.5 0 0 1 2.66 2.31l.13 1.88a6.68 6.68 0 0 1 3.5-1L39 2.72A2.5 2.5 0 0 1 41.4.15c1.69-.06 3.4-.1 5.1-.12.26 0 .53.04.77.11.27-.1.55-.14.83-.14h5.02a2.51 2.51 0 0 1 2.5 2.53l-.02 1.1h.49a6.46 6.46 0 0 1 4.84 2.44 8.16 8.16 0 0 1 6.03-1.89c1.52.12 2.85.5 3.95 1.12l.18-1.84a2.48 2.48 0 0 1 2.74-2.24c1.67.17 3.37.36 5.04.56.3.04.58.12.85.26.25-.04.5-.05.74-.02 1.68.22 3.37.45 5.03.7a2.5 2.5 0 0 1 2.1 2.84l-.2 1.36c1.32.22 2.63.44 3.9.67.32.05.63.18.9.35.3-.05.6-.06.9 0a151 151 0 0 1 4.93.94 2.5 2.5 0 0 1 1.94 2.95l-1.65 7.95c-.87 4.17-3.27 6.29-7.12 6.29-.75 0-1.56-.08-2.47-.25-2.2-.39-3.8-1.04-4.9-2a4.58 4.58 0 0 1-1.59-2.94c-1.4-.2-2.78-.4-4.12-.57a2.47 2.47 0 0 1-.78-.23 2.5 2.5 0 0 1-.67 0 226.5 226.5 0 0 0-4.67-.5c-.47-.06-.9-.23-1.28-.52-1.43.28-2.9.36-4.33.23a9.2 9.2 0 0 1-5.93-2.56 6.32 6.32 0 0 1-6.92 1.6c-.26.09-.53.13-.8.13a164.34 164.34 0 0 0-4.53 0c-.25 0-.52-.04-.75-.11-.23.07-.47.1-.7.11-1.36.02-2.9.06-4.55.11-.28 0-.56-.04-.8-.12a6.45 6.45 0 0 1-2.41.48c-1.11 0-2.2-.3-3.16-.85-.44.55-1.07.88-1.78.93a231.5 231.5 0 0 0-4.9.39 2.5 2.5 0 0 1-1.9-.89 9.7 9.7 0 0 1-4.74 1.89 9.25 9.25 0 0 1-4.9-.58 6.28 6.28 0 0 1-1.26 3.09c-1.17 1.5-2.96 2.41-5.65 2.9-.97.17-1.86.26-2.66.26z"></path><path class="background" d="M99.44 11.73a1.98 1.98 0 0 0-1.53-2.34c-1.72-.35-3.38-.67-4.92-.94a1.97 1.97 0 0 0-.8.02l-.12.03-.1-.07a1.99 1.99 0 0 0-.79-.33 256.9 256.9 0 0 0-4.14-.7l-.26-.04.28-1.88a1.98 1.98 0 0 0-1.66-2.24 241.1 241.1 0 0 0-5.02-.7 1.94 1.94 0 0 0-.66.03l-.1.02-.09-.05a1.96 1.96 0 0 0-.73-.24c-1.67-.2-3.36-.4-5.04-.56a1.99 1.99 0 0 0-2.16 1.77l-.27 2.68-.36-.23a8.5 8.5 0 0 0-4.67-1.28c-2.03 0-3.89.7-5.23 1.96l-.22.2-.17-.24a5.95 5.95 0 0 0-5.33-2.44l-.29.03.02-1.67a1.99 1.99 0 0 0-1.97-2h-5.02c-.25 0-.5.05-.73.14l-.09.04-.1-.03a2.07 2.07 0 0 0-.68-.12c-1.69.02-3.4.06-5.05.12a1.98 1.98 0 0 0-1.91 2.03l.04 1.37v.28l-.27-.01h-.53c-1.2.06-2.34.46-3.3 1.15l-.38.27-.2-2.8a1.98 1.98 0 0 0-2.1-1.83c-1.67.12-3.37.26-5.05.41a1.98 1.98 0 0 0-1.78 2.15l.29 3.17-.42-.2a8.71 8.71 0 0 0-3.82-.83c-.42 0-.85.03-1.27.08-1.9.23-3.66.97-4.95 2.1l-.21.18-.17-.22a1.98 1.98 0 0 0-1.88-.77c-1.57.24-3.17.5-4.73.78-.25.04-.48.13-.7.26l-.08.05-.1-.02a6.33 6.33 0 0 0-2.67.12 6.18 6.18 0 0 0-4.58 7.35 6.2 6.2 0 0 0 2.35 3.82l.16.12-.07.18a4.1 4.1 0 0 0-.16 2.28c.63 3.08 3.77 3.41 5.08 3.41.76 0 1.63-.08 2.57-.26 2.55-.45 4.24-1.32 5.33-2.7a5.9 5.9 0 0 0 1.2-3.18l.03-.36.34.15a8.74 8.74 0 0 0 4.94.68 9.22 9.22 0 0 0 4.68-1.94l.22-.18.16.24a1.97 1.97 0 0 0 1.82.87c1.56-.14 3.13-.27 4.69-.38a1.96 1.96 0 0 0 1.52-.9l.14-.22.22.14a5.74 5.74 0 0 0 5.39.43l.09-.04.1.03c.2.08.47.12.7.12 1.66-.05 3.2-.09 4.56-.11.2 0 .42-.04.62-.11l.08-.03.1.03c.2.07.43.11.66.11a126.77 126.77 0 0 1 4.52 0c.25 0 .5-.05.72-.13l.1-.04.1.04a5.9 5.9 0 0 0 2.18.43c1.7 0 3.28-.73 4.44-2.06l.2-.23.19.23c.18.2.37.4.57.57a8.68 8.68 0 0 0 5.2 2.03c1.44.12 2.89.03 4.31-.25l.13-.03.1.08c.3.27.68.43 1.08.47 1.56.16 3.13.33 4.68.52.2.02.4.02.6-.02l.1-.02.07.05c.22.11.45.19.69.22 1.4.18 2.86.38 4.33.6l.2.03.02.2a4.05 4.05 0 0 0 1.44 2.8c1.01.9 2.53 1.5 4.64 1.88.88.16 1.66.24 2.38.24 3.57 0 5.8-1.98 6.61-5.88l1.65-7.94z" fill="#fff"></path><path class="foreground" d="M13.83 9.28c-1.56.24-3.13.5-4.69.78l.18 1a4.27 4.27 0 0 0-3.61-.61 4.18 4.18 0 0 0-3.1 5.04 4.21 4.21 0 0 0 4 3.5c-1.35.7-1.95 1.78-1.72 2.89.27 1.35 1.63 2.28 5.36 1.6 3.99-.71 5.38-2.5 4.82-6.17a7619 7619 0 0 1-1.24-8.03zm-6.48 5.67c-.14-.8.24-1.59 1.01-1.74h.05a1.4 1.4 0 0 1 1.52 1.25c.14.85-.26 1.62-1.02 1.76-.77.13-1.4-.45-1.56-1.27zm2.63 5.91a.81.81 0 0 1-1.02-.75c-.23-1.28 1.55-1.76 1.55-1.76l.22 1.27c.13.72-.18 1.14-.75 1.24zM20.98 8c-3.37.41-5.94 2.68-5.46 5.86.49 3.18 3.5 4.6 6.67 4.2 3.16-.4 5.7-2.5 5.4-5.7-.29-3.19-3.24-4.76-6.6-4.36zm.78 6.7c-.84.11-1.52-.6-1.62-1.5s.35-1.75 1.2-1.86c.86-.1 1.52.61 1.63 1.52.1.9-.37 1.74-1.21 1.85zm6.17-11.06l1.21 13.4c1.58-.15 3.15-.27 4.73-.38l-.94-13.42c-1.67.11-3.34.25-5 .4zm13.57-.86l.16 4.74a3.57 3.57 0 0 0-2.79-1.07c-2.67.13-4.36 2.54-4.17 5.3.19 2.76 2 4.93 4.46 4.82a3.92 3.92 0 0 0 2.94-1.6l.04 1.24c1.52-.05 3.04-.09 4.56-.11l-.2-13.44c-1.66.02-3.34.06-5 .12zm-.65 10.26c-.83.03-1.43-.67-1.47-1.56-.04-.9.5-1.65 1.34-1.68.84-.03 1.44.69 1.47 1.57.03.9-.52 1.64-1.34 1.67zm15.13-6.78a3.94 3.94 0 0 0-2.94 1.16l.07-4.79h-5.02l.08 13.47c1.52-.03 3.04-.02 4.56 0v-1.24a3.9 3.9 0 0 0 2.97 1.54c2.48.06 4.25-2.15 4.38-4.93.13-2.78-1.51-5.12-4.1-5.21zm-2.02 6.64c-.83-.02-1.38-.75-1.37-1.64s.59-1.61 1.43-1.6c.84.01 1.4.77 1.38 1.65-.03.9-.6 1.6-1.44 1.59zm12.81-6.1c-3.01-.2-5.66 1.6-5.8 4.62-.15 3.51 2.42 5.28 5.6 5.52 1.42.12 2.86.02 4.25-.32l-.24-2.77c-.86.21-1.75.3-2.63.24-1.28-.1-2.3-.4-2.65-1.23 2.1.13 4.18.29 6.25.5.83-3.4-.47-6.23-4.78-6.55zm-1.46 3.88c.2-.68.64-1.22 1.4-1.18.77.05 1.07.67 1.11 1.36l-2.5-.18zm6.92 6.54c1.58.16 3.15.33 4.72.52l1.6-13.35c-1.65-.2-3.32-.38-4.98-.55l-1.34 13.38zm7.9-12.59l-1.71 13.34c1.57.2 3.14.42 4.7.65l1.99-13.3-4.98-.69zm12.52 5.9l-.96 5.13a.9.9 0 1 1-1.75-.32l.9-5.16c-1.63-.3-3.26-.56-4.89-.82l-.9 5.77c-.23 1.46.51 2.51 2.16 2.92-1.45.21-2.33 1-2.5 2.08-.21 1.37.73 2.71 4.45 3.37 4 .73 5.94-.45 6.7-4.1l1.64-7.94c-1.61-.34-3.24-.65-4.85-.93zm-1.79 9.53c-.11.59-.4 1-1.09.87a.75.75 0 0 1-.63-.98c.2-1.26 1.96-1.18 1.96-1.18l-.24 1.29z"></path></svg>